<svg width="1512" height="2058" viewBox="0 0 1512 2058" fill="none" xmlns="http://www.w3.org/2000/svg">
<g style="mix-blend-mode:multiply" opacity="0.05">
<path d="M990.196 1580.14C962.837 1599.24 933.492 1615.55 902.634 1628.81C891.42 1633.65 880.003 1638.03 868.418 1642.05C824.672 1657.08 778.927 1666.03 732.562 1668.62C722.885 1669.21 713.153 1669.5 703.364 1669.5H699.996C711.222 1669.5 722.268 1669 733.135 1668.01C822.436 1660.59 906.848 1625.53 973.761 1568.07C979.082 1572.22 984.561 1576.25 990.196 1580.14Z" fill="#01686F" stroke="#01686F" stroke-width="5" stroke-miterlimit="10"/>
<path d="M644.091 838.727C642.744 838.013 641.397 837.235 640.084 836.423L644.091 838.727Z" fill="#01686F"/>
<path d="M644.091 838.727C642.744 838.013 641.397 837.235 640.084 836.423" stroke="#01686F" stroke-width="5" stroke-miterlimit="10"/>
<path d="M659.515 846.742C658.673 846.385 657.831 845.962 656.956 845.508L659.515 846.742Z" fill="#01686F"/>
<path d="M659.515 846.742C658.673 846.385 657.831 845.962 656.956 845.508" stroke="#01686F" stroke-width="5" stroke-miterlimit="10"/>
<path d="M669.248 851.153C666.352 849.953 663.49 848.655 660.661 847.292L669.248 851.153Z" fill="#01686F"/>
<path d="M669.248 851.153C666.352 849.953 663.49 848.655 660.661 847.292" stroke="#01686F" stroke-width="5" stroke-miterlimit="10"/>
<path d="M689.421 858.875C686.794 857.999 684.134 857.058 681.541 856.085L689.421 858.875Z" fill="#01686F"/>
<path d="M689.421 858.875C686.794 857.999 684.134 857.058 681.541 856.085" stroke="#01686F" stroke-width="5" stroke-miterlimit="10"/>
<path d="M713.198 865.658C711.884 865.398 710.604 865.074 709.291 864.75L713.198 865.658Z" fill="#01686F"/>
<path d="M713.198 865.658C711.884 865.398 710.604 865.074 709.291 864.75" stroke="#01686F" stroke-width="5" stroke-miterlimit="10"/>
<path d="M561.547 764.65C562.355 765.85 563.231 767.051 564.14 768.219C565.353 769.906 566.599 771.464 567.912 773.216" fill="#01686F"/>
<path d="M561.547 764.65C562.355 765.85 563.231 767.051 564.14 768.219C565.353 769.906 566.599 771.464 567.912 773.216" stroke="#01686F" stroke-width="5" stroke-miterlimit="10"/>
<path d="M577.14 784.248C578.487 785.838 579.901 787.493 581.316 788.92C582.73 790.348 584.145 791.97 585.593 793.495" fill="#01686F"/>
<path d="M577.14 784.248C578.487 785.838 579.901 787.493 581.316 788.92C582.73 790.348 584.145 791.97 585.593 793.495" stroke="#01686F" stroke-width="5" stroke-miterlimit="10"/>
<path d="M476.107 778.83C381.126 826.893 305.058 903.555 259.492 997.133C239.693 1037.86 226.083 1081.13 219.079 1125.59C199.392 1249.14 231.342 1375.17 307.927 1476.06C384.512 1576.96 499.486 1644.49 627.656 1663.86" stroke="#01686F" stroke-width="5" stroke-miterlimit="10"/>
<path d="M733.337 1667.88C722.403 1668.79 711.345 1669.27 700.164 1669.34C675.889 1669.22 651.655 1667.38 627.656 1663.86C512.227 1646.41 407.06 1589.82 331.111 1504.28C255.161 1418.74 213.423 1309.87 213.421 1197.3C213.419 1173.34 215.277 1149.41 218.978 1125.72" stroke="#01686F" stroke-width="5" stroke-miterlimit="10"/>
<path d="M733.337 1667.88L732.663 1668.5C722.998 1669.08 713.265 1669.34 703.465 1669.34H700.097C711.323 1669.25 722.403 1668.77 733.337 1667.88Z" fill="#01686F" stroke="#01686F" stroke-width="5" stroke-miterlimit="10"/>
<path d="M920.652 931.882C910.334 938.843 899.35 944.841 887.85 949.792C861.816 961.106 833.596 967 805.037 967.087H697.268C726.844 967.114 756.072 960.933 782.918 948.976C809.765 937.018 833.585 919.57 852.724 897.845C874.087 906.292 894.699 916.406 914.354 928.085C916.442 929.318 918.497 930.551 920.585 931.849L920.652 931.882Z" fill="#01686F" stroke="#01686F" stroke-width="5" stroke-miterlimit="10"/>
<path d="M1031.01 447.902V605.789C1026.36 545.522 998.986 488.975 954.06 446.799C965.243 454.501 978.593 458.743 992.338 458.964C1006.08 459.184 1019.57 455.371 1031.01 448.032V447.902Z" fill="#01686F" stroke="#01686F" stroke-width="5" stroke-miterlimit="10"/>
<path d="M954.329 446.668C950.457 443.034 946.449 439.497 942.34 436.123C934.351 429.479 925.937 423.324 917.149 417.693C893.105 402.207 866.502 390.774 838.478 383.883C835.279 383.072 832.046 382.358 828.813 381.677" fill="#01686F"/>
<path d="M954.329 446.668C950.457 443.034 946.449 439.497 942.34 436.123C934.351 429.479 925.937 423.324 917.149 417.693V417.693C893.105 402.207 866.502 390.774 838.478 383.883C835.279 383.072 832.046 382.358 828.813 381.677" stroke="#01686F" stroke-width="5" stroke-miterlimit="10"/>
<path d="M1193.44 1197.17C1193.64 1304.67 1155.61 1409 1085.67 1492.76L1084.49 1494.22C1076.14 1483.94 1068.43 1473.42 1061.22 1462.68L1061.79 1461.71C1097.02 1399.82 1114.67 1330.07 1112.94 1259.51C1111.22 1188.95 1090.2 1120.08 1051.99 1059.85L1048.63 1054.86L1047.01 1052.36L1045.33 1049.92C1044.01 1047.98 1042.67 1046.06 1041.32 1044.15L1038.89 1040.9C1036.81 1037.98 1034.62 1035.06 1032.39 1032.21C1001.83 992.463 963.954 958.458 920.652 931.881C918.564 930.583 916.509 929.35 914.421 928.117C894.766 916.438 874.154 906.324 852.791 897.877C843.26 894.113 833.595 890.803 823.828 887.883C789.578 877.695 753.543 874.677 718.687 866.89C717.778 866.728 716.835 866.5 715.892 866.273L713.13 865.624C711.817 865.365 710.503 865.04 709.223 864.716L705.856 863.807L701.511 862.607L697.167 861.341L693.799 860.335C692.351 859.914 690.936 859.427 689.488 858.94C686.861 858.064 684.201 857.123 681.608 856.15C679.015 855.176 676.388 854.138 673.795 853.1L670.427 851.769L669.214 851.218C666.352 849.952 663.489 848.687 660.627 847.357L660.02 847.065L659.549 846.838L656.989 845.605L653.622 843.95L646.886 840.478L643.889 838.823L640.925 837.103L639.881 836.519L634.392 832.918L631.024 830.679C630.115 830.127 629.205 829.511 628.262 828.894L626.579 827.791L623.042 825.358L622.2 824.741C620.516 823.573 618.833 822.34 617.216 821.139C615.6 819.939 613.848 818.511 611.962 817.116L608.359 814.261C607.146 813.287 606.001 812.281 604.991 811.308L601.017 807.901L597.986 805.175C597.717 804.916 597.447 804.689 597.212 804.429L594.113 801.574C591.352 798.935 588.657 796.274 586.031 793.592L581.754 789.017C580.339 787.492 578.958 785.934 577.577 784.344L576.635 783.241C573.839 779.997 571.111 776.752 568.485 773.312L567.407 771.852L564.713 768.316C563.837 767.147 562.961 765.914 562.119 764.746C560.806 762.962 559.627 761.177 558.415 759.393C558.175 759.12 557.961 758.826 557.775 758.517C557.135 757.576 556.529 756.635 555.923 755.694L554.071 752.838C553.431 751.865 552.959 751.021 552.387 750.113C552.387 749.853 552.05 749.561 551.882 749.269C551.713 748.977 551.578 748.718 551.376 748.426C550.501 746.965 549.625 745.505 548.783 744.013C547.908 742.52 547.099 741.028 546.257 739.535C544.607 736.517 542.89 733.467 541.542 730.385C540.97 729.217 540.397 728.049 539.859 726.881L538.646 724.285C537.467 721.657 536.255 718.964 535.278 716.271C534.605 714.681 533.965 713.026 533.325 711.468L531.742 707.185C530.361 703.486 529.115 699.722 527.937 695.959C527.499 694.596 527.095 693.201 526.691 691.805C526.084 689.826 525.546 687.847 525.007 685.835C524.636 684.472 524.3 683.11 523.963 681.747C523.626 680.384 523.424 679.605 523.222 678.502C523.02 677.399 522.717 676.393 522.515 675.257C522.313 674.122 521.976 672.694 521.706 671.396C515.316 639.13 515.568 605.968 522.447 573.795H622.571C626.26 609.082 640.867 642.486 664.5 669.677C724.783 738.659 823.525 731.715 902.129 765.168C922.475 773.89 942.167 783.962 961.065 795.312C972.212 801.996 983.09 809.037 993.631 816.532C996.191 818.317 998.716 820.198 1001.24 822.048C1025.25 839.786 1047.52 859.596 1067.79 881.231C1148.89 967.889 1193.67 1080.49 1193.44 1197.17Z" fill="#01686F" stroke="#01686F" stroke-width="5" stroke-miterlimit="10"/>
<path d="M548.211 743.883C547.369 742.39 546.527 740.898 545.719 739.405L548.211 743.883Z" fill="#01686F"/>
<path d="M548.211 743.883C547.369 742.39 546.527 740.898 545.719 739.405" stroke="#01686F" stroke-width="5" stroke-miterlimit="10"/>
<path d="M548.211 743.883C547.369 742.39 546.527 740.898 545.719 739.405C546.527 740.898 547.335 742.358 548.211 743.883Z" fill="#01686F" stroke="#01686F" stroke-width="5" stroke-miterlimit="10"/>
<path d="M551.309 749.172L550.77 748.329C549.895 746.869 549.019 745.409 548.211 743.916C549.053 745.409 549.928 746.869 550.804 748.329C551.006 748.621 551.141 748.848 551.309 749.172Z" fill="#01686F" stroke="#01686F" stroke-width="5" stroke-miterlimit="10"/>
<path d="M557.203 758.582L556.293 757.284L555.351 755.759L557.203 758.582Z" fill="#01686F" stroke="#01686F" stroke-width="5" stroke-miterlimit="10"/>
<path d="M828.51 381.579C801.136 377.967 773.269 380.387 747.007 388.657C720.745 396.927 696.773 410.831 676.897 429.321C657.021 447.812 641.759 470.406 632.262 495.404C622.764 520.401 619.278 547.149 622.066 573.633H521.774C533.849 517.759 565.532 467.597 611.492 431.59C657.452 395.583 714.883 375.928 774.121 375.933H779.374C795.903 376.285 812.358 378.176 828.51 381.579Z" fill="#01686F" stroke="#01686F" stroke-width="5" stroke-miterlimit="10"/>
<path d="M1008.21 770.393C1008.26 782.591 1007.13 794.767 1004.85 806.766C1003.86 811.936 1002.65 817.03 1001.21 822.049C998.683 820.199 996.157 818.317 993.598 816.533C983.057 809.037 972.179 801.996 961.031 795.312C941.947 783.915 922.063 773.81 901.523 765.072C900.136 713.85 878.044 665.175 839.954 629.416C801.864 593.657 750.787 573.642 697.605 573.634H804.397C831.193 573.642 857.726 578.736 882.479 588.624C907.233 598.511 929.722 613 948.664 631.262C967.606 649.523 982.629 671.201 992.875 695.056C1003.12 718.912 1008.39 744.478 1008.38 770.296L1008.21 770.393Z" fill="#01686F" stroke="#01686F" stroke-width="5" stroke-miterlimit="10"/>
<path d="M561.547 764.65C562.355 765.85 563.231 767.051 564.14 768.219C565.353 769.906 566.599 771.464 567.912 773.216" fill="#01686F"/>
<path d="M561.547 764.65C562.355 765.85 563.231 767.051 564.14 768.219C565.353 769.906 566.599 771.464 567.912 773.216" stroke="#01686F" stroke-width="5" stroke-miterlimit="10"/>
<path d="M577.14 784.248C578.487 785.838 579.901 787.493 581.316 788.92C582.73 790.348 584.145 791.97 585.593 793.495" fill="#01686F"/>
<path d="M577.14 784.248C578.487 785.838 579.901 787.493 581.316 788.92C582.73 790.348 584.145 791.97 585.593 793.495" stroke="#01686F" stroke-width="5" stroke-miterlimit="10"/>
<path d="M419.124 573.634C401.18 573.66 383.98 580.546 371.3 592.78C358.621 605.014 351.5 621.596 351.5 638.885V573.634H419.124Z" fill="#01686F" stroke="#01686F" stroke-width="5" stroke-miterlimit="10"/>
<path d="M521.774 573.73H419.125" stroke="#01686F" stroke-width="5" stroke-miterlimit="10"/>
<path d="M697.403 573.73H621.898" stroke="#01686F" stroke-width="5" stroke-miterlimit="10"/>
<path d="M338.635 967.086H372.851H381.776" fill="#01686F"/>
<path d="M338.635 967.086H372.851H381.776" stroke="#01686F" stroke-width="5" stroke-miterlimit="10"/>
<path d="M522.279 967.086H588.523H622.908" fill="#01686F"/>
<path d="M522.279 967.086H588.523H622.908" stroke="#01686F" stroke-width="5" stroke-miterlimit="10"/>
<path d="M588.523 967.086H622.908H697.403" fill="#01686F"/>
<path d="M588.523 967.086H622.908H697.403" stroke="#01686F" stroke-width="5" stroke-miterlimit="10"/>
<path d="M1031.11 447.902V447.09" stroke="#01686F" stroke-width="5" stroke-miterlimit="10"/>
<path d="M954.33 446.669C950.457 443.035 946.449 439.498 942.34 436.124L954.33 446.669Z" fill="#01686F"/>
<path d="M954.33 446.669C950.457 443.035 946.449 439.498 942.34 436.124" stroke="#01686F" stroke-width="5" stroke-miterlimit="10"/>
<path d="M1430.13 1669.34H1295.42C1177.54 1669.34 1070.11 1635.5 990.196 1580.11C984.538 1576.24 979.038 1572.22 973.694 1568.07C918.463 1525.69 883.404 1465.89 858.685 1403.11C818.002 1299.6 785.167 1196.62 705.25 1113.52C636.008 1041.32 544.944 988.144 443.507 972.213C423.108 968.981 402.481 967.267 381.81 967.086H522.245C624.996 967.086 729.598 992.849 815.443 1048.2C892.093 1097.65 935.941 1172.51 966.386 1254.53C993.597 1327.99 1018.65 1399.12 1061.19 1462.59C1068.4 1473.33 1076.11 1483.84 1084.46 1494.12C1093.65 1505.55 1103.49 1516.48 1113.93 1526.86C1183.44 1596.14 1274.54 1648.41 1373.89 1664.18C1392.49 1667.15 1411.28 1668.87 1430.13 1669.34Z" fill="#01686F" stroke="#01686F" stroke-width="5" stroke-miterlimit="10"/>
<path d="M766.105 2056.46C752.028 2056.46 721.314 2056.72 707.742 2056.17C693.564 2055.62 673.155 2054.26 659.111 2053.64C655.744 2053.45 652.645 2053.02 649.412 2052.73L610.616 2048.81C592.834 2046.8 570.573 2042.8 552.724 2040.24C534.807 2036.61 513.051 2032.49 495.472 2028.33L457.652 2018.6C204.564 1950.1 -17.2031 1786.34 -154.439 1570.34C-161.613 1558.11 -177.812 1532.93 -183.907 1520.8C-188.622 1512.39 -197.547 1495.45 -202.194 1487.02C-210.041 1470.79 -219.808 1451.33 -226.88 1435.1L-241.732 1399.74C-248.467 1382.67 -255.203 1363.07 -261.433 1345.78C-266.552 1328.61 -273.355 1307.98 -277.767 1290.62C-281.135 1276.96 -288.813 1248.11 -290.868 1234.77C-292.754 1225.37 -296.155 1206.61 -298.041 1197.2C-299.994 1183.64 -302.621 1163.65 -304.507 1149.99C-312.637 1077.08 -313.134 1003.56 -305.989 930.551C-264.094 519.674 31.5285 171.29 440.173 47.6017C458.359 42.0208 479.104 36.9266 497.425 31.8648C506.989 29.8207 526.522 25.3754 536.154 23.4286C549.928 19.827 580.575 15.7062 594.72 13.0455C606.406 10.8391 622.234 9.80083 634.089 8.04869C645.943 6.29655 662.277 4.80398 673.66 4.28483C723.085 0.584057 772.709 0.00959378 822.212 2.56514C835.683 3.63589 868.148 5.80984 881.451 7.46464C895.73 9.05455 916.51 11.8774 930.62 13.662C940.084 15.544 959.987 18.7887 969.619 20.5733C984.202 22.3903 1013.2 30.3074 1027.61 33.1303C1039.4 35.5314 1054.05 40.5282 1065.7 43.5458C1076.44 46.5958 1092.98 51.2357 1103.42 55.1294C1340.54 131.704 1546.79 292.609 1674.69 499.654C1684.43 514.612 1694.43 533.788 1703.59 549.136C1707.8 557.507 1716.72 574.639 1720.97 583.043C1727.94 595.503 1738.82 621.98 1744.91 634.958C1749.96 645.374 1754.44 659.586 1758.99 670.228C1763.54 680.871 1768.12 694.953 1771.79 705.92C1783.94 741.753 1793.89 778.243 1801.59 815.202L1805.6 833.632L1808.66 852.224C1810.48 862.899 1813.24 878.701 1814.49 889.408C1815.97 902.128 1819.47 933.017 1820.01 945.509C1820.82 962.836 1822.71 984.446 1822.37 1001.74V1039.25C1820.22 970.692 1811.53 902.472 1796.41 835.449C1791.99 818.479 1786.94 797.94 1782.02 781.262C1775.49 760.237 1766.16 730.612 1758.05 710.463C1752.32 693.947 1743.73 674.771 1736.86 658.547C1574.94 292.09 1204.49 48.7049 791.532 42.1506C327.151 31.7675 -92.1021 327.036 -224.792 755.629C-229.507 772.08 -236.04 792.002 -239.61 808.745C-242.001 819.063 -246.346 834.119 -248.063 844.437C-250.387 856.734 -256.449 886.618 -257.796 898.656C-258.975 907.644 -261.602 926.009 -262.814 935.029C-264.498 953.264 -266.036 971.554 -267.428 989.897C-268.977 1023.35 -269.078 1057.35 -267.866 1090.87C-266.923 1103.27 -265.037 1133.48 -263.589 1145.84C-262.006 1159.01 -259.446 1178.28 -257.796 1191.26C-256.146 1200.15 -252.98 1218.52 -251.296 1227.47C-160.299 1702.27 266.262 2045.21 766.105 2056.46Z" fill="#01686F" stroke="#01686F" stroke-miterlimit="10"/>
</g>
</svg>
